<svg width="128" height="70" viewBox="0 0 128 70" fill="none" xmlns="http://www.w3.org/2000/svg">
<g clip-path="url(#clip0_836_26577)">
<path d="M0 60.6924V51.9508H7.26816V60.629C7.26816 62.7045 8.09537 63.5838 9.37232 63.5838C10.6493 63.5838 11.4765 62.7045 11.4765 60.8825V54.8422C11.4765 45.7243 0 46.3422 0 32.709V26.3717C0 20.9651 3.44133 17.2617 9.37232 17.2617C15.1748 17.2617 18.6804 20.5968 18.6804 26.443V35.2875H11.4122V26.4826C11.4122 24.5972 10.581 23.71 9.37232 23.71C8.09537 23.71 7.26816 24.6566 7.26816 26.2885V32.3882C7.26816 41.4466 18.6804 40.8169 18.6804 54.462V60.9974C18.6804 66.3445 15.2993 69.9924 9.4446 69.9924C3.58991 69.9924 0 66.8554 0 60.6924Z" fill="white"/>
<path d="M28.752 45.4751H28.3063L28.499 69.4343H21.3594V17.8047H28.499L28.3063 40.6944H28.8163L33.9803 17.8047H41.7584L34.8757 42.0173L42.2041 69.4343H33.92L28.752 45.4751Z" fill="white"/>
<path d="M57.6355 63.0177V69.4343H43.5449V17.8047H57.3785V24.2213H50.6846V39.6883H56.997V46.1049H50.6846V63.0177H57.6355Z" fill="white"/>
<path d="M74.1492 63.0177V69.4343H60.0586V17.8047H73.8922V24.2213H67.1983V39.6883H73.5107V46.1049H67.1983V63.0177H74.1492Z" fill="white"/>
<path d="M89.5707 63.0177V69.4343H76.5684V17.8047H83.708V63.0177H89.5707Z" fill="white"/>
<path d="M99.0731 63.0177H106.277V69.4343H90.7207L98.2459 24.2213H90.9777V17.8047H106.658L99.0731 63.0177Z" fill="white"/>
<path d="M128.001 9.55362C128.001 9.5802 127.992 9.60596 127.975 9.62678C127.958 9.6476 127.935 9.66229 127.909 9.66849C125.523 10.0132 123.314 11.1091 121.611 12.7929C119.909 14.4767 118.803 16.6581 118.46 19.0121C118.456 19.0223 118.456 19.0336 118.46 19.0438C118.454 19.0682 118.439 19.0897 118.419 19.1049C118.398 19.12 118.373 19.1278 118.348 19.127C118.322 19.1265 118.298 19.1182 118.278 19.1032C118.258 19.0883 118.243 19.0675 118.235 19.0438C118.237 19.0334 118.237 19.0226 118.235 19.0121C117.886 16.6615 116.779 14.4844 115.077 12.8035C113.375 11.1226 111.169 10.0274 108.786 9.68037H108.754C108.729 9.6742 108.707 9.65995 108.691 9.63987C108.675 9.61978 108.666 9.59501 108.666 9.56947C108.667 9.54307 108.676 9.51764 108.693 9.49695C108.71 9.47625 108.733 9.4614 108.758 9.4546H108.786C111.164 9.10087 113.364 8.00178 115.06 6.31985C116.755 4.63791 117.857 2.4624 118.203 0.114933C118.201 0.107092 118.201 0.0990086 118.203 0.0911677C118.208 0.0656466 118.223 0.0427217 118.243 0.0261645C118.263 0.00960726 118.289 0.00040385 118.315 6.83154e-05C118.331 -0.000463528 118.347 0.00211437 118.361 0.00764825C118.376 0.0131821 118.389 0.0215587 118.4 0.0322783C118.412 0.0429978 118.421 0.0558409 118.427 0.0700415C118.433 0.0842421 118.436 0.0995094 118.436 0.114933C118.785 2.46376 119.893 4.63903 121.594 6.31841C123.295 7.9978 125.499 9.09196 127.88 9.43876C127.911 9.43876 127.941 9.45086 127.963 9.4724C127.985 9.49394 127.997 9.52316 127.997 9.55362" fill="#FF0500"/>
</g>
<defs>
<clipPath id="clip0_836_26577">
<rect width="128" height="70" fill="white"/>
</clipPath>
</defs>
</svg>
